<?xml version="1.0" encoding="utf-8"?>
<!-- Generator: Adobe Illustrator 28.0.0, SVG Export Plug-In . SVG Version: 6.00 Build 0)  -->
<svg version="1.1" id="Слой_1" xmlns="http://www.w3.org/2000/svg" xmlns:xlink="http://www.w3.org/1999/xlink" x="0px" y="0px"
	 viewBox="0 0 1213 370.6" style="enable-background:new 0 0 1213 370.6;" xml:space="preserve">
<style type="text/css">
	.st0{fill:#333333;}
	.st1{fill:url(#SVGID_1_);}
	.st2{opacity:0.35;fill:#1A1A1A;}
	.st3{fill:#FFFFFF;}
	.st4{fill:url(#SVGID_00000136410062137278670920000007279363782030227847_);}
	.st5{fill:url(#SVGID_00000051347274322758839830000014949140037803460543_);}
	.st6{fill:url(#SVGID_00000005245454928617669260000012821157524959900814_);}
	.st7{fill:url(#SVGID_00000127759045989761428630000008560193807735900341_);}
</style>
<g>
	<g>
		<path class="st0" d="M398.9,162.1h46.8v24.6h-73.3V64.6h26.5V162.1z"/>
		<path class="st0" d="M551.4,139.2c0,2.4-0.2,4.9-0.5,7.5h-71.2c1,6.4,3.6,11.3,7.6,14.7c4,3.4,9.2,5.1,15.4,5.1
			c4.3,0,8.2-1,11.7-2.9c3.5-1.9,6.2-4.6,8.2-7.9h26.9c-3.5,10.2-9.4,18.4-17.8,24.4c-8.4,6-18,9.1-29,9.1c-14,0-25.6-4.8-34.9-14.3
			c-9.3-9.5-14-21.3-14-35.4c0-5.6,0.8-10.9,2.4-16.1c1.6-5.1,3.8-9.7,6.8-13.8c3-4.1,6.4-7.6,10.4-10.6c4-3,8.4-5.3,13.4-6.9
			c5-1.6,10.3-2.4,15.9-2.4c9.4,0,17.9,2.2,25.4,6.6c7.5,4.4,13.3,10.4,17.3,18C549.4,122,551.4,130.3,551.4,139.2z M502.8,111.5
			c-5.7,0-10.5,1.6-14.4,4.7c-3.9,3.1-6.5,7.5-7.9,13.1H526c-1.2-3.8-2.9-7.1-5.1-9.7c-2.2-2.6-4.9-4.6-7.9-6
			S506.5,111.5,502.8,111.5z"/>
		<path class="st0" d="M646.5,92.3h19v94.2h-20.1l-2.1-8.4c-8.6,7.4-18.8,11.2-30.5,11.2c-14.2,0-26-4.7-35.3-14.2
			c-9.4-9.5-14-21.4-14-35.7c0-14.2,4.7-26,14-35.4c9.4-9.4,21.1-14.1,35.3-14.1c12,0,22.3,3.8,30.9,11.5L646.5,92.3z M596.5,157.9
			c4.8,4.9,10.9,7.3,18.3,7.3c7.4,0,13.5-2.4,18.4-7.3c4.9-4.9,7.3-11,7.3-18.5c0-7.4-2.4-13.6-7.3-18.5c-4.9-4.9-11-7.3-18.3-7.3
			c-4.9,0-9.3,1.1-13.2,3.4c-3.9,2.3-7,5.4-9.2,9.2c-2.2,3.9-3.3,8.3-3.3,13.2C589.3,146.8,591.7,153,596.5,157.9z"/>
		<path class="st0" d="M743.9,90.2c10.7,0,19.1,3.5,25.3,10.6c6.2,7.1,9.2,16.6,9.2,28.6v57.2H753v-53c0-7.1-1.3-12.4-3.9-15.9
			c-2.6-3.5-6.8-5.2-12.5-5.2c-6.4,0-11.5,2.2-15.4,6.6c-3.8,4.4-5.8,10.4-5.8,18v49.6H690V58.4h25.5v42.7
			C723.1,93.9,732.6,90.2,743.9,90.2z"/>
		<path class="st0" d="M875.4,122.3c5.3,2.8,9.5,6.7,12.5,11.8c3,5.1,4.5,10.8,4.5,17.4c0,9.8-3.8,18.1-11.3,24.9
			c-7.5,6.9-16.5,10.3-27.1,10.3h-52V64.6h50.6c10.5,0,19.2,3,26.2,9c7,6,10.5,13.5,10.5,22.4c0,5.2-1.2,10.2-3.7,14.8
			C883.1,115.4,879.7,119.3,875.4,122.3z M863.6,100.1c0-2-0.3-3.7-1-5.3c-0.6-1.6-1.5-2.9-2.7-4.1c-1.2-1.2-2.6-2.1-4.3-2.7
			c-1.7-0.6-3.6-1-5.7-1h-22v26h22c4.2,0,7.5-1.2,9.9-3.6C862.4,107.1,863.6,104,863.6,100.1z M851.4,162.4c4.3,0,7.8-1.3,10.5-3.8
			c2.7-2.6,4-5.9,4-9.9c0-4-1.3-7.2-4-9.8c-2.7-2.6-6.2-3.8-10.5-3.8H828v27.4H851.4z"/>
		<path class="st0" d="M1003.7,139.2c0,2.4-0.2,4.9-0.5,7.5H932c1,6.4,3.6,11.3,7.6,14.7c4,3.4,9.2,5.1,15.4,5.1
			c4.3,0,8.2-1,11.7-2.9c3.5-1.9,6.2-4.6,8.2-7.9h26.9c-3.5,10.2-9.4,18.4-17.8,24.4c-8.4,6-18,9.1-29,9.1c-14,0-25.6-4.8-34.9-14.3
			c-9.3-9.5-14-21.3-14-35.4c0-5.6,0.8-10.9,2.4-16.1c1.6-5.1,3.8-9.7,6.8-13.8c3-4.1,6.4-7.6,10.4-10.6c4-3,8.4-5.3,13.4-6.9
			c5-1.6,10.3-2.4,15.9-2.4c9.4,0,17.9,2.2,25.4,6.6c7.5,4.4,13.3,10.4,17.3,18C1001.7,122,1003.7,130.3,1003.7,139.2z M955,111.5
			c-5.7,0-10.5,1.6-14.4,4.7c-3.9,3.1-6.5,7.5-7.9,13.1h45.5c-1.2-3.8-2.9-7.1-5.1-9.7c-2.2-2.6-4.9-4.6-7.9-6
			S958.7,111.5,955,111.5z"/>
		<path class="st0" d="M1021.8,186.7V58.4h25.5v128.2H1021.8z"/>
		<path class="st0" d="M1071.7,186.7V58.4h25.5v128.2H1071.7z"/>
		<path class="st0" d="M1213,139.2c0,2.4-0.2,4.9-0.5,7.5h-71.2c1,6.4,3.6,11.3,7.6,14.7c4,3.4,9.2,5.1,15.4,5.1
			c4.3,0,8.2-1,11.7-2.9c3.5-1.9,6.2-4.6,8.2-7.9h26.9c-3.5,10.2-9.4,18.4-17.8,24.4c-8.4,6-18,9.1-29,9.1c-14,0-25.6-4.8-34.9-14.3
			c-9.3-9.5-14-21.3-14-35.4c0-5.6,0.8-10.9,2.4-16.1c1.6-5.1,3.8-9.7,6.8-13.8c3-4.1,6.4-7.6,10.4-10.6c4-3,8.4-5.3,13.4-6.9
			c5-1.6,10.3-2.4,15.9-2.4c9.4,0,17.9,2.2,25.4,6.6c7.5,4.4,13.3,10.4,17.3,18C1211,122,1213,130.3,1213,139.2z M1164.4,111.5
			c-5.7,0-10.5,1.6-14.4,4.7c-3.9,3.1-6.5,7.5-7.9,13.1h45.5c-1.2-3.8-2.9-7.1-5.1-9.7c-2.2-2.6-4.9-4.6-7.9-6
			S1168.1,111.5,1164.4,111.5z"/>
	</g>
	<g>
		<linearGradient id="SVGID_1_" gradientUnits="userSpaceOnUse" x1="186.9743" y1="97.8351" x2="14.6906" y2="270.1187">
			<stop  offset="1.388999e-04" style="stop-color:#8B5CF6"/>
			<stop  offset="1" style="stop-color:#3B82F6"/>
		</linearGradient>
		<path class="st1" d="M281,230.8L281,230.8L281,230.8c-0.6-39-23.4-72.7-56.3-89c13.6-15.2,21.7-35.2,21.7-56.8
			c0-46.8-38.1-84.9-84.9-84.9H0.2L0,230.2c0,37.5,14.6,72.8,41.2,99.3c27.4,27.4,63.4,41.1,99.3,41.1c36,0,72-13.7,99.4-41.1
			c25.9-25.9,40.5-60.3,41.1-96.8v0c0-0.1,0-0.3,0-0.4h0.1C281,231.8,281,231.3,281,230.8z M115.6,36.7h45.9
			c26.6,0,48.2,21.6,48.2,48.2c0,22-14.6,40.9-35.6,46.6h0c-14.4,0.8-28,4.7-40.1,11c-6.6,3.4-12.7,7.5-18.3,12.1V36.7z M67.1,303.6
			c-19.6-19.6-30.4-45.7-30.4-73.4l0.2-193.5h41.9v193.5c0,27,10.5,52.4,29.6,71.5c16,16,36.5,26,58.6,28.8
			C132.5,339.6,94.2,330.6,67.1,303.6z M244.3,231.8L244.3,231.8c-0.4,16.5-7.1,32.2-18.9,43.9c-25.1,25.1-65.9,25.1-91,0
			c-11.2-11.2-17.7-25.7-18.7-41.4c-0.1-0.7-0.1-1.4-0.1-2h0.1c0-17.4,6.9-33.1,18.2-44.7c11.7-12,28-19.6,46.1-19.6
			c34.8,0,63.3,27.8,64.2,62.4v0.2c0,0,0,0.1,0,0.1c0,0.1,0,0.3,0,0.4L244.3,231.8L244.3,231.8L244.3,231.8z"/>
		<rect x="78.8" y="36.7" class="st2" width="36.7" height="18.4"/>
		<path class="st2" d="M133.9,142.5v45.1c-11.2,11.6-18.2,27.4-18.2,44.7h-0.1c0,0.7,0.1,1.4,0.1,2h-0.2l0-79.7
			C121.2,149.9,127.3,145.9,133.9,142.5z"/>
	</g>
	<g>
		<path class="st0" d="M422.6,282l-5.5-13.8h-28.2l-5.4,13.8h-11l25.5-63.3h9.8l26.1,63.3H422.6z M402.9,232.3L392.5,259h21
			L402.9,232.3z"/>
		<path class="st0" d="M443.2,282v-63.3h10.4V282H443.2z"/>
		<path class="st0" d="M521,283.1c-9.3,0-17.1-3.1-23.3-9.3c-6.2-6.2-9.3-14-9.3-23.5c0-9.5,3.1-17.3,9.3-23.5s13.9-9.3,23.3-9.3
			c4.9,0,9.5,1,13.8,2.9c4.2,1.9,7.8,4.7,10.6,8.2c2.9,3.6,4.8,7.7,5.9,12.4h-10.5c-1.5-4.2-4-7.5-7.5-9.9
			c-3.5-2.4-7.6-3.6-12.3-3.6c-6.3,0-11.6,2.1-15.7,6.4c-4.2,4.3-6.2,9.7-6.2,16.3s2.1,12,6.2,16.3c4.2,4.3,9.4,6.4,15.7,6.4
			c4.8,0,9-1.3,12.6-3.8c3.6-2.6,6-6.1,7.4-10.5h10.6c-1.6,7.4-5.2,13.3-10.8,17.8C535.3,280.9,528.7,283.1,521,283.1z"/>
		<path class="st0" d="M602.8,275.9c-5,4.9-11.2,7.3-18.7,7.3c-7.5,0-13.7-2.4-18.7-7.3c-5-4.9-7.5-11-7.5-18.3
			c0-4.8,1.1-9.2,3.4-13.1c2.3-3.9,5.4-7,9.4-9.2c4-2.2,8.5-3.3,13.3-3.3c4.9,0,9.3,1.1,13.3,3.3c4,2.2,7.2,5.3,9.4,9.2
			c2.3,3.9,3.4,8.3,3.4,13.1C610.3,265,607.8,271.1,602.8,275.9z M584.1,273.6c3.1,0,5.8-0.7,8.2-2c2.4-1.4,4.3-3.3,5.7-5.7
			c1.4-2.4,2-5.2,2-8.3c0-4.6-1.5-8.5-4.5-11.5c-3-3-6.8-4.5-11.4-4.5c-4.6,0-8.5,1.5-11.4,4.5c-3,3-4.5,6.8-4.5,11.5
			c0,4.6,1.5,8.5,4.5,11.5C575.7,272.1,579.5,273.6,584.1,273.6z"/>
		<path class="st0" d="M646.9,232.1c5.7,0,10.2,1.9,13.5,5.7c3.3,3.8,5,8.7,5,14.8V282h-10v-27.4c0-4.4-1-7.8-2.9-10.1
			c-1.9-2.3-4.7-3.5-8.4-3.5c-3.8,0-6.9,1.4-9.4,4.2c-2.5,2.8-3.7,6.3-3.7,10.7V282h-10v-48.9h7l2,6.8c1.9-2.5,4.3-4.4,7.2-5.8
			C640,232.8,643.3,232.1,646.9,232.1z"/>
		<path class="st0" d="M695.3,283.2c-6,0-10.8-1.5-14.4-4.5c-3.6-3-5.5-7.1-5.6-12.1h9.9c0.1,2.5,1.1,4.4,3,5.7c1.9,1.4,4.4,2,7.5,2
			c1.8,0,3.4-0.2,4.8-0.7c1.4-0.5,2.5-1.2,3.4-2.2c0.8-1,1.3-2.1,1.3-3.4c0-0.9-0.2-1.7-0.6-2.4c-0.4-0.7-0.9-1.3-1.5-1.7
			c-0.6-0.4-1.5-0.8-2.6-1.2c-1.1-0.4-2.1-0.6-3-0.8c-0.9-0.2-2-0.4-3.5-0.6c-1.5-0.2-2.7-0.5-3.6-0.6c-0.9-0.2-2.1-0.5-3.4-0.9
			c-1.4-0.4-2.5-0.8-3.4-1.3c-0.9-0.5-1.8-1-2.9-1.8c-1-0.7-1.8-1.5-2.4-2.4c-0.6-0.9-1.1-2-1.4-3.3c-0.4-1.3-0.6-2.7-0.6-4.3
			c0-4.4,1.7-8,5.2-10.7c3.5-2.7,8-4.1,13.7-4.1c5.7,0,10.2,1.4,13.7,4.3c3.4,2.8,5.2,6.6,5.2,11.4h-9.5c-0.1-2.3-0.9-4.1-2.6-5.3
			c-1.7-1.2-4-1.9-7-1.9c-2.8,0-5,0.5-6.6,1.6c-1.6,1.1-2.4,2.5-2.4,4.3c0,0.7,0.1,1.4,0.4,1.9c0.2,0.5,0.7,1,1.2,1.4
			c0.6,0.4,1.1,0.8,1.6,1c0.5,0.3,1.3,0.5,2.3,0.8c1,0.2,1.9,0.4,2.5,0.5c0.7,0.1,1.6,0.3,2.9,0.5c1.6,0.3,2.8,0.5,3.7,0.7
			c0.8,0.2,2,0.4,3.5,0.8c1.5,0.4,2.7,0.8,3.5,1.2c0.8,0.4,1.8,1,2.9,1.8c1.1,0.8,2,1.6,2.5,2.5c0.6,0.9,1.1,2.1,1.5,3.5
			c0.4,1.4,0.6,2.9,0.6,4.5c0,4.8-1.8,8.6-5.4,11.4C706.1,281.8,701.3,283.2,695.3,283.2z"/>
		<path class="st0" d="M747.4,283.2c-6.7,0-12.1-2-16.1-6s-6.1-9.3-6.1-15.8v-28.2h10V260c0,4.3,1.1,7.6,3.3,10
			c2.2,2.4,5.1,3.6,8.9,3.6c3.8,0,6.8-1.2,9-3.7c2.2-2.4,3.3-5.8,3.3-10v-26.8h10v28.2c0,6.6-2,11.9-6.1,15.8
			C759.5,281.2,754.1,283.2,747.4,283.2z"/>
		<path class="st0" d="M783.1,282v-66.4h10V282H783.1z"/>
		<path class="st0" d="M829.3,272.9h5.5v9.1h-7.4c-3.6,0-6.6-0.7-9.2-2.1c-2.6-1.4-4.6-3.4-6-6c-1.4-2.6-2.1-5.7-2.1-9.3v-22.9h-8.8
			v-1.9l17-18.1h1.7v11.4h14.5v8.6h-14.4v22.1c0,2.9,0.8,5.1,2.4,6.7C824,272.1,826.3,272.9,829.3,272.9z"/>
		<path class="st0" d="M844.4,225.6v-10.3h10.4v10.3H844.4z M844.5,282v-48.9h10V282H844.5z"/>
		<path class="st0" d="M894.8,232.1c5.7,0,10.2,1.9,13.5,5.7c3.4,3.8,5,8.7,5,14.8V282h-10v-27.4c0-4.4-1-7.8-2.8-10.1
			c-1.9-2.3-4.7-3.5-8.4-3.5c-3.8,0-6.9,1.4-9.4,4.2s-3.7,6.3-3.7,10.7V282h-10v-48.9h7l2,6.8c1.9-2.5,4.3-4.4,7.2-5.8
			C888,232.8,891.2,232.1,894.8,232.1z"/>
		<path class="st0" d="M967,233.2h6.6v42.4c0,5.2-1,9.7-2.9,13.4c-2,3.8-4.8,6.7-8.5,8.7c-3.7,2-8,3-13,3c-6.2,0-11.4-1.5-15.7-4.6
			c-4.2-3-7-7.3-8.2-12.7h10c0.9,2.7,2.6,4.7,5.2,6.2c2.6,1.4,5.4,2.2,8.5,2.2c4.3,0,7.9-1.3,10.6-4c2.7-2.7,4.1-6.3,4.1-10.9v-2.2
			c-4.5,3.9-9.9,5.8-16.2,5.8c-6.8,0-12.5-2.3-17.1-7c-4.7-4.7-7-10.4-7-17.2c0-6.8,2.3-12.6,7-17.3c4.7-4.7,10.4-7.1,17.1-7.1
			c7.2,0,13.1,2.5,17.8,7.5L967,233.2z M948.7,271.3c2.1,0,4.1-0.4,6-1.1c1.9-0.8,3.5-1.8,4.8-3.1c1.3-1.3,2.4-2.9,3.1-4.8
			c0.8-1.9,1.1-3.9,1.1-6c0-4.3-1.4-7.9-4.3-10.8c-2.8-2.8-6.4-4.3-10.8-4.3c-4.3,0-7.9,1.4-10.8,4.3c-2.9,2.9-4.3,6.4-4.3,10.7
			c0,4.3,1.4,7.8,4.3,10.7S944.4,271.3,948.7,271.3z"/>
	</g>
</g>
</svg>
