<?xml version="1.0" encoding="utf-8"?>
<!-- Generator: Adobe Illustrator 28.0.0, SVG Export Plug-In . SVG Version: 6.00 Build 0)  -->
<svg version="1.1" id="Слой_1" xmlns="http://www.w3.org/2000/svg" xmlns:xlink="http://www.w3.org/1999/xlink" x="0px" y="0px"
	 viewBox="0 0 667.3 880.1" style="enable-background:new 0 0 667.3 880.1;" xml:space="preserve">
<style type="text/css">
	.st0{fill:#333333;}
	.st1{fill:url(#SVGID_1_);}
	.st2{opacity:0.35;fill:#1A1A1A;}
	.st3{fill:#FFFFFF;}
	.st4{fill:url(#SVGID_00000027580721250322683990000015494763947576824714_);}
	.st5{fill:url(#SVGID_00000043420397490618565980000010560209060975901631_);}
	.st6{fill:url(#SVGID_00000129207951717972428500000016692851586659661198_);}
	.st7{fill:url(#SVGID_00000021098772889997090310000007735299333560870273_);}
</style>
<g>
	<linearGradient id="SVGID_1_" gradientUnits="userSpaceOnUse" x1="443.9843" y1="232.3167" x2="34.884" y2="641.4171">
		<stop  offset="1.388999e-04" style="stop-color:#8B5CF6"/>
		<stop  offset="1" style="stop-color:#3B82F6"/>
	</linearGradient>
	<path class="st1" d="M667.2,548L667.2,548L667.2,548c-1.4-92.7-55.5-172.7-133.7-211.3c32.4-36,51.5-83.5,51.5-134.9
		C585.1,90.5,494.6,0,383.4,0H0.5L0,546.7c0,89.1,34.7,172.9,97.7,235.9c65.1,65.1,150.5,97.6,235.9,97.6
		c85.4,0,170.9-32.5,235.9-97.6c61.4-61.4,96.1-143.1,97.6-229.9v0c0-0.3,0-0.6,0-1h0.1C667.3,550.4,667.3,549.2,667.2,548z
		 M274.4,87.2h109c63.1,0,114.5,51.4,114.5,114.5c0,52.2-34.7,97.1-84.6,110.6h-0.1c-34.1,2-66.4,11.2-95.3,26.1
		c-15.6,8-30.2,17.7-43.5,28.8V87.2z M159.4,720.9c-46.6-46.5-72.2-108.4-72.2-174.2l0.4-459.5h99.5v459.4
		c0,64.1,24.9,124.4,70.3,169.8c38,38,86.6,61.8,139.2,68.4C314.7,806.4,223.6,785,159.4,720.9z M580.1,550.4L580.1,550.4
		c-1,39.3-16.9,76.4-44.8,104.4c-59.6,59.6-156.5,59.6-216,0c-26.6-26.6-42.1-61.1-44.4-98.3c-0.1-1.6-0.2-3.2-0.3-4.8h0.3
		c0-41.2,16.4-78.7,43.1-106.2c27.7-28.6,66.6-46.4,109.5-46.4c82.7,0,150.2,66.1,152.6,148.2v0.5c0,0.1,0,0.1,0,0.2
		c0,0.3,0,0.7,0,1l0,1.2l0.1,0V550.4z"/>
	<rect x="187.2" y="87.2" class="st2" width="87.2" height="43.6"/>
	<path class="st2" d="M317.9,338.3v107.2c-26.7,27.5-43.1,65-43.1,106.2h-0.3c0,1.6,0.1,3.2,0.3,4.8h-0.4l0.1-189.4
		C287.7,356,302.4,346.4,317.9,338.3z"/>
</g>
</svg>
